# xmcd
#
# Track frame offsets: 
#        150
#        11702
#        29552
#        41887
#        54300
#        69612
#        81162
#        95592
#
# Disc length: 1462 seconds
#
# Revision: 0
# Processed by: cddbd v1.5.2PL0 Copyright (c) Steve Scherf et al.
# Submitted via: ExactAudioCopyFreeDBPlugin 1.0
#
DISCID=6905b408
DTITLE=Quincy Jones - Great Performances
DYEAR=1900
DGENRE=Blues
TTITLE0=On the Street Where You Live
TTITLE1=Blues in the Night
TTITLE2=Tuxedo Junction
TTITLE3=Cast Your Fate to the Wind
TTITLE4=They Say It's Wonderful
TTITLE5=A Sunday Kind of Love
TTITLE6=Love Is Here to Stay
TTITLE7=Solitude
EXTD=
EXTT0=
EXTT1=
EXTT2=
EXTT3=
EXTT4=
EXTT5=
EXTT6=
EXTT7=
PLAYORDER=
